<?xml version="1.0" encoding="UTF-8"?>
<svg width="135px" height="22px" viewBox="0 0 135 22" version="1.1" xmlns="http://www.w3.org/2000/svg" xmlns:xlink="http://www.w3.org/1999/xlink">
    <!-- Generator: Sketch 61 (89581) - https://sketch.com -->
    <title>logo</title>
    <desc>Created with Sketch.</desc>
    <g id="logo" stroke="none" stroke-width="1" fill="none" fill-rule="evenodd">
        <g id="photograph" fill-rule="nonzero">
            <path d="M15.4040816,0 C16.5959184,0 17.5755102,0.979591837 17.5755102,2.17142857 L17.5755102,2.17142857 L17.5755102,4.89387755 L18.2979592,4.89387755 C19.2326531,4.89387755 20,5.66122449 20,6.59591837 L20,6.59591837 L20,18.2979592 C20,19.2326531 19.2326531,20 18.2979592,20 L18.2979592,20 L1.70204082,20 C0.767346939,20 0,19.2326531 0,18.2979592 L0,18.2979592 L0,6.59591837 C0,5.66122449 0.767346939,4.89387755 1.70204082,4.89387755 L1.70204082,4.89387755 L2.38367347,4.89387755 L2.38367347,2.17142857 C2.38367347,0.979591837 3.36326531,0 4.55510204,0 L4.55510204,0 Z" id="Shape" fill="#00CDB7" stroke="#fffffcc00"></path>
            <path d="M15.2326531,9.19183673 L4.72244898,9.19183673 C4.25306122,9.19183673 3.86938776,9.5755102 3.86938776,10.044898 C3.86938776,10.5142857 4.25306122,10.8979592 4.72244898,10.8979592 L15.277551,10.8979592 C15.7020408,10.8979592 16.0857143,10.5142857 16.0857143,10.044898 C16.0857143,9.5755102 15.7020408,9.19183673 15.2326531,9.19183673 Z" id="Path" fill="#FFFFFF"></path>
            <path d="M15.2326531,13.9591837 L4.72244898,13.9591837 C4.25306122,13.9591837 3.86938776,14.3428571 3.86938776,14.8122449 C3.86938776,15.2816327 4.25306122,15.6653061 4.72244898,15.6653061 L15.277551,15.6653061 C15.7020408,15.6653061 16.0857143,15.2816327 16.0857143,14.8122449 C16.0857143,14.3387755 15.7020408,13.9591837 15.2326531,13.9591837 Z" id="Path" fill="#FFFFFF"></path>
        </g>
        <path d="M29.1306818,20 L30.223,16.381 L36.458,16.381 L37.5511364,20 L43.0909091,20 L36.8494318,1.09090909 L29.8323864,1.09090909 L23.5909091,20 L29.1306818,20 Z M35.298,12.54 L31.383,12.54 L33.2670455,6.29829545 L33.4147727,6.29829545 L35.298,12.54 Z M63.2556818,21.4034091 L60.381,17.928 L60.5481179,17.7702415 C61.0216366,17.3019988 61.4425839,16.7693138 61.81096,16.1721866 L61.990767,15.8682528 C62.8094223,14.4248343 63.21875,12.6505682 63.21875,10.5454545 C63.21875,8.44034091 62.8094223,6.66607481 61.990767,5.22265625 C61.1721117,3.77923769 60.0672348,2.6866714 58.6761364,1.94495739 C57.2850379,1.20324337 55.7339015,0.832386364 54.0227273,0.832386364 C52.2992424,0.832386364 50.7434896,1.20324337 49.3554687,1.94495739 C47.9674479,2.6866714 46.8656487,3.77923769 46.050071,5.22265625 C45.2344934,6.66607481 44.8267045,8.44034091 44.8267045,10.5454545 C44.8267045,12.6382576 45.2344934,14.4063684 46.050071,15.8497869 C46.8656487,17.2932055 47.9674479,18.3888494 49.3554687,19.1367188 C50.7434896,19.8845881 52.2992424,20.2585227 54.0227273,20.2585227 C55.0757576,20.2585227 56.0681818,20.1180798 57,19.8371941 L57.287,19.745 L58.7130682,21.4034091 L63.2556818,21.4034091 Z M54.0227273,15.7897727 C53.1732955,15.7897727 52.4577415,15.5881866 51.8760653,15.1850142 C51.2943892,14.7818419 50.854285,14.1909328 50.5557528,13.4122869 C50.2572206,12.6336411 50.1079545,11.6780303 50.1079545,10.5454545 C50.1079545,9.41287879 50.2572206,8.45726799 50.5557528,7.67862216 C50.854285,6.89997633 51.2943892,6.30906723 51.8760653,5.90589489 C52.4577415,5.50272254 53.1732955,5.30113636 54.0227273,5.30113636 C54.8721591,5.30113636 55.5877131,5.50272254 56.1693892,5.90589489 C56.7510653,6.30906723 57.1911695,6.89997633 57.4897017,7.67862216 C57.7882339,8.45726799 57.9375,9.41287879 57.9375,10.5454545 C57.9375,11.6780303 57.7882339,12.6336411 57.4897017,13.4122869 C57.390191,13.6718355 57.27495,13.9105245 57.1439789,14.1283539 L57.13,14.15 L56.2017045,12.9829545 L52.2130682,12.9829545 L54.325,15.781 L54.3009128,15.7823066 L54.3009128,15.7823066 L54.0227273,15.7897727 Z M73.78125,20.2215909 C75.4000947,20.2215909 76.8219697,19.9369081 78.046875,19.3675426 C79.2717803,18.7981771 80.2273911,17.9887547 80.9137074,16.9392756 C81.6000237,15.8897964 81.9431818,14.6448864 81.9431818,13.2045455 L81.9431818,13.2045455 L81.9431818,1.09090909 L76.8096591,1.09090909 L76.8096591,12.7613636 C76.8096591,13.3461174 76.6803977,13.8677794 76.421875,14.3263494 C76.1633523,14.7849195 75.8063447,15.1434659 75.3508523,15.4019886 C74.8953598,15.6605114 74.3721591,15.7897727 73.78125,15.7897727 C73.1964962,15.7897727 72.6748343,15.6605114 72.2162642,15.4019886 C71.7576941,15.1434659 71.3991477,14.7849195 71.140625,14.3263494 C70.8821023,13.8677794 70.7528409,13.3461174 70.7528409,12.7613636 L70.7528409,12.7613636 L70.7528409,1.09090909 L65.6193182,1.09090909 L65.6193182,13.2045455 C65.6193182,14.6448864 65.9593987,15.8897964 66.6395597,16.9392756 C67.3197206,17.9887547 68.2722538,18.7981771 69.4971591,19.3675426 C70.7220644,19.9369081 72.1500947,20.2215909 73.78125,20.2215909 Z M89.2926136,20 L90.384,16.381 L96.62,16.381 L97.7130682,20 L103.252841,20 L97.0113636,1.09090909 L89.9943182,1.09090909 L83.7528409,20 L89.2926136,20 Z M95.46,12.54 L91.544,12.54 L93.4289773,6.29829545 L93.5767045,6.29829545 L95.46,12.54 Z M118.394886,20.2215909 C120.013731,20.2215909 121.435606,19.9369081 122.660511,19.3675426 C123.885417,18.7981771 124.841027,17.9887547 125.527344,16.9392756 C126.21366,15.8897964 126.556818,14.6448864 126.556818,13.2045455 L126.556818,13.2045455 L126.556818,1.09090909 L121.423295,1.09090909 L121.423295,12.7613636 C121.423295,13.3461174 121.294034,13.8677794 121.035511,14.3263494 C120.776989,14.7849195 120.419981,15.1434659 119.964489,15.4019886 C119.508996,15.6605114 118.985795,15.7897727 118.394886,15.7897727 C117.810133,15.7897727 117.288471,15.6605114 116.829901,15.4019886 C116.37133,15.1434659 116.012784,14.7849195 115.754261,14.3263494 C115.495739,13.8677794 115.366477,13.3461174 115.366477,12.7613636 L115.366477,12.7613636 L115.366477,1.09090909 L110.232955,1.09090909 L110.232955,13.2045455 C110.232955,14.6448864 110.573035,15.8897964 111.253196,16.9392756 C111.933357,17.9887547 112.88589,18.7981771 114.110795,19.3675426 C115.335701,19.9369081 116.763731,20.2215909 118.394886,20.2215909 Z M134.127841,20 L134.127841,1.09090909 L128.994318,1.09090909 L128.994318,20 L134.127841,20 Z" id="AQUAUI" fill="#fff" fill-rule="nonzero"></path>
    </g>
</svg>