<?xml version="1.0" encoding="UTF-8"?>
<svg width="20px" height="20px" viewBox="0 0 20 20" version="1.1" xmlns="http://www.w3.org/2000/svg" xmlns:xlink="http://www.w3.org/1999/xlink">
    <!-- Generator: Sketch 61 (89581) - https://sketch.com -->
    <title>photograph</title>
    <desc>Created with Sketch.</desc>
    <g id="Symbols" stroke="none" stroke-width="1" fill="none" fill-rule="evenodd">
        <g id="logo" fill-rule="nonzero">
            <g id="photograph">
                <path d="M15.4040816,0 C16.5959184,0 17.5755102,0.979591837 17.5755102,2.17142857 L17.5755102,2.17142857 L17.5755102,4.89387755 L18.2979592,4.89387755 C19.2326531,4.89387755 20,5.66122449 20,6.59591837 L20,6.59591837 L20,18.2979592 C20,19.2326531 19.2326531,20 18.2979592,20 L18.2979592,20 L1.70204082,20 C0.767346939,20 0,19.2326531 0,18.2979592 L0,18.2979592 L0,6.59591837 C0,5.66122449 0.767346939,4.89387755 1.70204082,4.89387755 L1.70204082,4.89387755 L2.38367347,4.89387755 L2.38367347,2.17142857 C2.38367347,0.979591837 3.36326531,0 4.55510204,0 L4.55510204,0 Z" id="Shape" fill="#00CDB7"></path>
                <path d="M15.2326531,9.19183673 L4.72244898,9.19183673 C4.25306122,9.19183673 3.86938776,9.5755102 3.86938776,10.044898 C3.86938776,10.5142857 4.25306122,10.8979592 4.72244898,10.8979592 L15.277551,10.8979592 C15.7020408,10.8979592 16.0857143,10.5142857 16.0857143,10.044898 C16.0857143,9.5755102 15.7020408,9.19183673 15.2326531,9.19183673 Z" id="Path" fill="#FFFFFF"></path>
                <path d="M15.2326531,13.9591837 L4.72244898,13.9591837 C4.25306122,13.9591837 3.86938776,14.3428571 3.86938776,14.8122449 C3.86938776,15.2816327 4.25306122,15.6653061 4.72244898,15.6653061 L15.277551,15.6653061 C15.7020408,15.6653061 16.0857143,15.2816327 16.0857143,14.8122449 C16.0857143,14.3387755 15.7020408,13.9591837 15.2326531,13.9591837 Z" id="Path" fill="#FFFFFF"></path>
            </g>
        </g>
    </g>
</svg>