<svg width="21" height="22" viewBox="0 0 21 22" fill="none" xmlns="http://www.w3.org/2000/svg">
<path d="M8.99946 16.5185C8.99946 15.1489 8.99892 11.9529 8.99946 11.4967C9 11.0406 7.5 10.5841 7.5 9.21452C7.5 7.84495 8.22022 6.71205 8.99946 6.475C10.5003 6.01846 9.5 7.50451 9.5 8.30075C9.5 8.30587 11.5 8.30582 11.5 8.30075C11.5 7.56584 11 6.02326 12 6.47985C13 6.93644 13.5 7.84495 13.5 9.21452C13.5 10.5841 12 11.0449 11.9995 11.4967C11.9989 11.9485 12 15.1486 12 16.5181C12 17.8877 8.99946 17.888 8.99946 16.5185Z" stroke="white" stroke-width="0.75"/>
<rect x="0.375" y="9.59277" width="4.25" height="6.55435" rx="2.125" stroke="white" stroke-width="0.75"/>
<rect x="16.375" y="9.59277" width="4.25" height="6.55435" rx="2.125" stroke="white" stroke-width="0.75"/>
<mask id="path-4-inside-1_2242_957" fill="white">
<path d="M12.5 19.2607C12.7761 19.2607 13 19.4846 13 19.7607L13 21.4999C13 21.776 12.7761 21.9999 12.5 21.9999L9.36956 21.9999C8.61318 21.9999 8 21.3867 8 20.6303C8 19.8739 8.61318 19.2607 9.36957 19.2607L12.5 19.2607Z"/>
</mask>
<path d="M12.5 19.2607C12.7761 19.2607 13 19.4846 13 19.7607L13 21.4999C13 21.776 12.7761 21.9999 12.5 21.9999L9.36956 21.9999C8.61318 21.9999 8 21.3867 8 20.6303C8 19.8739 8.61318 19.2607 9.36957 19.2607L12.5 19.2607Z" stroke="white" stroke-width="1.5" mask="url(#path-4-inside-1_2242_957)"/>
<path d="M2.49954 9.67391C2.49954 9.67391 1.80428 1 10.5 1C19.1956 1 18.5017 9.67391 18.5017 9.67391M18.5 16.0652C18.5 16.0652 18.502 21.5435 12.5 21.5435" stroke="white" stroke-width="0.75"/>
</svg>
