<?xml version="1.0" encoding="UTF-8" standalone="no"?> <svg width="20" height="20" viewBox="0 0 64 64" fill="none" xmlns="http://www.w3.org/2000/svg">
<path d="M60 9.5C59.9974 7.78208 59.3158 6.13483 58.1039 4.91727C56.892 3.69971 55.2479 3.01055 53.53 3H21.48C19.7612 3.01054 18.1161 3.69937 16.9025 4.91665C15.689 6.13393 15.0052 7.78116 15 9.5V30H5C4.73478 30 4.48043 30.1054 4.29289 30.2929C4.10536 30.4804 4 30.7348 4 31V44.8C4.00264 46.5257 4.68937 48.1801 5.90966 49.4003C7.12995 50.6206 8.78425 51.3074 10.51 51.31H26V56.12C26.007 56.3183 26.0656 56.5113 26.17 56.68L28.84 60.53C28.9319 60.6625 29.0545 60.7708 29.1972 60.8456C29.34 60.9205 29.4988 60.9597 29.66 60.96C29.8212 60.9597 29.98 60.9205 30.1228 60.8456C30.2655 60.7708 30.3881 60.6625 30.48 60.53L32.33 57.87L34.18 60.53C34.2673 60.6699 34.3879 60.786 34.531 60.868C34.674 60.95 34.8352 60.9953 35 61C35.1612 60.9997 35.32 60.9605 35.4628 60.8856C35.6055 60.8107 35.7281 60.7025 35.82 60.57L37.67 57.91L39.52 60.57C39.6119 60.7025 39.7345 60.8107 39.8772 60.8856C40.02 60.9605 40.1788 60.9997 40.34 61C40.5012 60.9997 40.66 60.9605 40.8028 60.8856C40.9455 60.8107 41.0681 60.7025 41.16 60.57L43 57.91L44.84 60.57C44.9318 60.7041 45.055 60.8137 45.1987 60.8895C45.3425 60.9653 45.5025 61.0049 45.665 61.0049C45.8275 61.0049 45.9875 60.9653 46.1313 60.8895C46.275 60.8137 46.3982 60.7041 46.49 60.57L48.34 57.91L50.19 60.57C50.2822 60.702 50.4048 60.8099 50.5476 60.8843C50.6904 60.9588 50.849 60.9976 51.01 60.9976C51.171 60.9976 51.3296 60.9588 51.4724 60.8843C51.6152 60.8099 51.7378 60.702 51.83 60.57L53.68 57.91L55.53 60.57C55.6219 60.7025 55.7445 60.8107 55.8872 60.8856C56.03 60.9605 56.1888 60.9997 56.35 61C56.5112 60.9997 56.67 60.9605 56.8128 60.8856C56.9555 60.8107 57.0781 60.7025 57.17 60.57L59.85 56.73C59.9515 56.5557 60.013 56.361 60.03 56.16L60 9.5ZM6 44.84V32H15V44.8C14.9238 45.9416 14.4166 47.0116 13.5811 47.7933C12.7456 48.575 11.6442 49.0098 10.5 49.0098C9.35583 49.0098 8.25444 48.575 7.4189 47.7933C6.58336 47.0116 6.07615 45.9416 6 44.8V44.84ZM15.19 49.35C16.3555 48.1384 17.0046 46.5212 17 44.84V9.51C17 8.31905 17.471 7.17644 18.3103 6.33151C19.1496 5.48658 20.2891 5.00792 21.48 5C22.6753 4.99999 23.822 5.47346 24.6691 6.3168C25.5162 7.16014 25.9947 8.30469 26 9.5V49.35H15.19ZM56.4 58.25L54.55 55.58C54.4578 55.448 54.3352 55.3401 54.1924 55.2657C54.0496 55.1912 53.891 55.1524 53.73 55.1524C53.569 55.1524 53.4104 55.1912 53.2676 55.2657C53.1248 55.3401 53.0022 55.448 52.91 55.58L51 58.25L49.15 55.58C49.0582 55.4459 48.935 55.3363 48.7913 55.2605C48.6475 55.1847 48.4875 55.1451 48.325 55.1451C48.1625 55.1451 48.0025 55.1847 47.8587 55.2605C47.715 55.3363 47.5918 55.4459 47.5 55.58L45.66 58.25L43.81 55.58C43.7181 55.4475 43.5955 55.3392 43.4528 55.2644C43.31 55.1895 43.1512 55.1503 42.99 55.15C42.8288 55.1503 42.67 55.1895 42.5272 55.2644C42.3845 55.3392 42.2619 55.4475 42.17 55.58L40.32 58.25L38.47 55.58C38.3778 55.448 38.2552 55.3401 38.1124 55.2657C37.9696 55.1912 37.811 55.1524 37.65 55.1524C37.489 55.1524 37.3304 55.1912 37.1876 55.2657C37.0448 55.3401 36.9222 55.448 36.83 55.58L35 58.25L33.15 55.58C33.0581 55.4475 32.9355 55.3392 32.7928 55.2644C32.65 55.1895 32.4912 55.1503 32.33 55.15C32.1688 55.1503 32.01 55.1895 31.8672 55.2644C31.7245 55.3392 31.6019 55.4475 31.51 55.58L29.66 58.25L28 55.85V9.5C27.9977 7.81924 27.3413 6.20536 26.17 5H53.53C54.7175 5.01053 55.8528 5.48896 56.6897 6.33145C57.5266 7.17395 57.9974 8.3125 58 9.5V55.84L56.4 58.25Z" fill="white"/>
<path d="M43.8401 18.3398H42.1901C42.0456 18.3438 41.9018 18.3193 41.7668 18.2677C41.6318 18.2161 41.5083 18.1384 41.4034 18.039C41.2984 17.9396 41.2141 17.8206 41.1552 17.6886C41.0963 17.5566 41.064 17.4143 41.0601 17.2698C41.0577 17.1294 41.085 16.99 41.1402 16.8607C41.1953 16.7315 41.277 16.6154 41.3801 16.5198C41.6005 16.3155 41.8895 16.2013 42.1901 16.1998H45.3201C45.5853 16.1998 45.8397 16.0945 46.0272 15.9069C46.2147 15.7194 46.3201 15.4651 46.3201 15.1998C46.3201 14.9346 46.2147 14.6803 46.0272 14.4927C45.8397 14.3052 45.5853 14.1998 45.3201 14.1998H44.0001V12.8398C44.0001 12.5746 43.8947 12.3203 43.7072 12.1327C43.5197 11.9452 43.2653 11.8398 43.0001 11.8398C42.7349 11.8398 42.4805 11.9452 42.293 12.1327C42.1054 12.3203 42.0001 12.5746 42.0001 12.8398V14.2198C41.2503 14.2589 40.5399 14.5679 40.0001 15.0898C39.7051 15.371 39.4706 15.7093 39.3107 16.0841C39.1508 16.4589 39.0689 16.8624 39.0701 17.2698C39.074 17.6769 39.1581 18.0793 39.3175 18.4539C39.4769 18.8285 39.7086 19.1681 39.9992 19.4531C40.2899 19.7382 40.6338 19.9632 41.0115 20.1154C41.3891 20.2675 41.793 20.3438 42.2001 20.3398H43.8501C43.9959 20.3345 44.1413 20.3579 44.278 20.4088C44.4147 20.4597 44.5401 20.5371 44.6469 20.6365C44.7537 20.7358 44.8399 20.8553 44.9005 20.988C44.9611 21.1207 44.9949 21.264 45.0001 21.4098C45.001 21.5486 44.9731 21.6861 44.918 21.8135C44.8629 21.9409 44.7819 22.0555 44.6801 22.1498C44.4594 22.3601 44.1648 22.4751 43.8601 22.4698H40.7101C40.4449 22.4698 40.1905 22.5752 40.003 22.7627C39.8154 22.9503 39.7101 23.2046 39.7101 23.4698C39.7101 23.7351 39.8154 23.9894 40.003 24.177C40.1905 24.3645 40.4449 24.4698 40.7101 24.4698H42.0001V25.8398C42.0001 26.1051 42.1054 26.3594 42.293 26.547C42.4805 26.7345 42.7349 26.8398 43.0001 26.8398C43.2653 26.8398 43.5197 26.7345 43.7072 26.547C43.8947 26.3594 44.0001 26.1051 44.0001 25.8398V24.4598C44.7481 24.413 45.4559 24.1051 46.0001 23.5898C46.305 23.3125 46.5507 22.9765 46.7226 22.6019C46.8944 22.2273 46.9888 21.8218 47.0001 21.4098C46.9949 21.0006 46.9089 20.5963 46.7472 20.2204C46.5854 19.8444 46.351 19.504 46.0574 19.2188C45.7639 18.9336 45.4169 18.7091 45.0364 18.5583C44.6559 18.4075 44.2493 18.3332 43.8401 18.3398V18.3398Z" fill="white"/>
<path d="M42.9999 8.50977C40.8584 8.51174 38.7655 9.14859 36.9858 10.3398C35.2062 11.531 33.8196 13.2231 33.0015 15.2022C32.1833 17.1813 31.9702 19.3586 32.3893 21.4587C32.8083 23.5589 33.8405 25.4877 35.3555 27.0013C36.8705 28.5149 38.8002 29.5453 40.9008 29.9624C43.0013 30.3795 45.1784 30.1644 47.1567 29.3444C49.135 28.5244 50.8259 27.1363 52.0154 25.3556C53.205 23.5748 53.8399 21.4813 53.8399 19.3398C53.8373 16.4666 52.694 13.7119 50.6614 11.6812C48.6288 9.65046 45.8732 8.50976 42.9999 8.50977V8.50977ZM42.9999 28.1698C41.2531 28.1717 39.5449 27.6556 38.0915 26.6865C36.6381 25.7175 35.5048 24.3391 34.835 22.7258C34.1651 21.1125 33.9888 19.3368 34.3284 17.6233C34.668 15.9097 35.5081 14.3355 36.7426 13.0996C37.9771 11.8637 39.5505 11.0217 41.2636 10.6802C42.9767 10.3387 44.7527 10.5129 46.3667 11.181C47.9808 11.849 49.3604 12.9807 50.3311 14.433C51.3018 15.8853 51.8199 17.5929 51.8199 19.3398C51.8173 21.6791 50.8875 23.922 49.2343 25.5771C47.5811 27.2322 45.3393 28.1645 42.9999 28.1698V28.1698Z" fill="white"/>
<path d="M32 36.9302H42C42.2652 36.9302 42.5196 36.8248 42.7071 36.6373C42.8946 36.4497 43 36.1954 43 35.9302C43 35.665 42.8946 35.4106 42.7071 35.2231C42.5196 35.0355 42.2652 34.9302 42 34.9302H32C31.7348 34.9302 31.4804 35.0355 31.2929 35.2231C31.1054 35.4106 31 35.665 31 35.9302C31 36.1954 31.1054 36.4497 31.2929 36.6373C31.4804 36.8248 31.7348 36.9302 32 36.9302Z" fill="white"/>
<path d="M52 39.7002H32C31.7348 39.7002 31.4804 39.8056 31.2929 39.9931C31.1054 40.1806 31 40.435 31 40.7002C31 40.9654 31.1054 41.2198 31.2929 41.4073C31.4804 41.5948 31.7348 41.7002 32 41.7002H52C52.2652 41.7002 52.5196 41.5948 52.7071 41.4073C52.8946 41.2198 53 40.9654 53 40.7002C53 40.435 52.8946 40.1806 52.7071 39.9931C52.5196 39.8056 52.2652 39.7002 52 39.7002Z" fill="white"/>
<path d="M52 44.46H32C31.7348 44.46 31.4804 44.5653 31.2929 44.7529C31.1054 44.9404 31 45.1947 31 45.46C31 45.7252 31.1054 45.9795 31.2929 46.1671C31.4804 46.3546 31.7348 46.46 32 46.46H52C52.2652 46.46 52.5196 46.3546 52.7071 46.1671C52.8946 45.9795 53 45.7252 53 45.46C53 45.1947 52.8946 44.9404 52.7071 44.7529C52.5196 44.5653 52.2652 44.46 52 44.46Z" fill="white"/>
<path d="M52 49.2202H32C31.7348 49.2202 31.4804 49.3256 31.2929 49.5131C31.1054 49.7006 31 49.955 31 50.2202C31 50.4854 31.1054 50.7398 31.2929 50.9273C31.4804 51.1149 31.7348 51.2202 32 51.2202H52C52.2652 51.2202 52.5196 51.1149 52.7071 50.9273C52.8946 50.7398 53 50.4854 53 50.2202C53 49.955 52.8946 49.7006 52.7071 49.5131C52.5196 49.3256 52.2652 49.2202 52 49.2202Z" fill="white"/>
</svg>
