<svg width="24" height="24" viewBox="0 0 24 24" fill="none" xmlns="http://www.w3.org/2000/svg">
<path d="M11.38 2.01855C10.6431 2.70518 10.0521 3.53318 9.64219 4.45317C9.23227 5.37317 9.01185 6.3663 8.99408 7.37333C8.97632 8.38036 9.16156 9.38065 9.53877 10.3145C9.91598 11.2484 10.4774 12.0968 11.1896 12.8089C11.9018 13.5211 12.7501 14.0826 13.684 14.4598C14.6179 14.837 15.6182 15.0222 16.6252 15.0045C17.6323 14.9867 18.6254 14.7663 19.5454 14.3564C20.4654 13.9464 21.2934 13.3554 21.98 12.6186C21.662 17.8536 17.316 21.9996 12.001 21.9996C6.477 21.9996 2 17.5226 2 11.9996C2 6.68455 6.146 2.33855 11.38 2.01855Z" fill="white"/>
</svg>
