<svg width="20" height="18" viewBox="0 0 20 18" fill="none" xmlns="http://www.w3.org/2000/svg">
<path fill-rule="evenodd" clip-rule="evenodd" d="M19.8573 5.3439C19.8723 6.00183 19.8869 6.64531 19.8869 7.2889C19.9023 10.074 19.8716 12.8744 19.8409 15.6749V15.6753L19.839 15.7766C19.8264 16.4839 19.8128 17.2405 18.9053 17.3281C18.0791 17.4076 17.2075 17.3581 16.3496 17.3094C15.8856 17.2831 15.4255 17.2569 14.9786 17.2516C12.2253 17.2059 9.45668 17.1905 6.70331 17.1752L6.68048 17.1751H2.60037C2.4545 17.1751 2.29407 17.1842 2.127 17.1938C1.32787 17.2393 0.37983 17.2934 0.176895 16.3945V16.3793C0.161569 16.3487 0.161569 16.3028 0.161569 16.2722C0.0695039 13.3032 0.115482 10.319 0.161569 7.33477L0.207547 5.03912C0.211569 4.89107 0.205047 4.72292 0.198308 4.54618C0.179069 4.04749 0.157004 3.47988 0.360917 3.09564C0.68233 2.49129 1.58135 2.55292 2.26353 2.59955C2.42787 2.61075 2.57961 2.62129 2.70776 2.62129L2.7532 2.62172C3.93407 2.63694 5.10016 2.65183 6.26624 2.65183C6.35657 2.65183 6.45429 2.64792 6.55581 2.64379C7.02396 2.6252 7.57711 2.60314 7.89222 2.94259C8.06005 3.12412 8.13863 3.39477 8.2094 3.63825L8.22961 3.70781C8.23885 3.72618 8.24809 3.76107 8.25722 3.79585C8.26342 3.81922 8.2695 3.84238 8.2757 3.86075C8.2757 3.84553 8.29092 3.84553 8.32168 3.86075C8.38396 3.88151 8.47429 3.87422 8.5595 3.86727C8.60016 3.86401 8.63972 3.86075 8.6745 3.86075H10.2083C12.0029 2.8814 13.8742 1.85596 15.5461 0.69292C15.7455 0.555203 16.0523 0.662268 16.175 0.86129C16.7424 1.85575 17.3098 2.83499 17.8771 3.81412L17.8775 3.81488L17.8802 3.81466C18.5396 3.75346 19.5192 3.66249 19.7796 4.19749C19.8954 4.4402 19.88 4.74401 19.8656 5.02977C19.8609 5.12249 19.8562 5.21325 19.8562 5.29933L19.8573 5.3439V5.3439ZM14.48 3.83781C15.2662 3.83401 16.0523 3.8302 16.8346 3.8302C16.7168 3.62683 16.5977 3.42205 16.478 3.2164L16.4779 3.21618C16.1924 2.72553 15.9037 2.22955 15.6229 1.73357C14.5031 2.48346 13.322 3.18738 12.1256 3.84553C12.9079 3.84553 13.694 3.84162 14.48 3.83792V3.83781ZM18.9053 16.3487C18.7912 16.5079 18.033 16.4474 17.5127 16.4057C17.3331 16.3914 17.1819 16.3793 17.0954 16.3793L17.0275 16.3781C14.4274 16.3326 11.8422 16.2874 9.242 16.2722C7.9382 16.2568 6.6344 16.2568 5.31527 16.2568C5.23646 16.2568 5.04255 16.2647 4.77874 16.2752C3.65635 16.3201 1.2682 16.4157 1.0819 16.1803C1.02048 13.9919 1.03581 11.8035 1.05113 9.63031L1.07418 7.94922V7.94662L1.09722 6.26346L1.1432 4.42705C1.1432 4.40085 1.14146 4.35988 1.13918 4.30944C1.12853 4.06531 1.10809 3.6002 1.23526 3.52412C1.27744 3.49259 1.40668 3.51162 1.50831 3.52662C1.5544 3.53346 1.59472 3.53944 1.61874 3.53944C2.28124 3.55781 2.94918 3.55966 3.61613 3.56151C4.06103 3.56259 4.50527 3.5639 4.94722 3.56999C5.15429 3.56999 5.36516 3.5739 5.57603 3.57759C5.7869 3.58151 5.99787 3.58531 6.20494 3.58531C6.27798 3.58531 6.36353 3.57912 6.45298 3.5727C6.64527 3.55879 6.85603 3.54357 7.00255 3.58531C7.22081 3.64944 7.22418 3.65977 7.28233 3.84096C7.29374 3.87629 7.30711 3.91803 7.32472 3.96792L7.3357 4.00379C7.3919 4.18738 7.44037 4.34542 7.57005 4.50357C7.86907 4.85162 8.41092 4.82607 8.87505 4.80422C8.98244 4.79922 9.08559 4.79433 9.18059 4.79433C10.6685 4.79433 12.1564 4.79433 13.6442 4.77912C14.0985 4.77912 14.553 4.7752 15.0054 4.77129C15.4541 4.76749 15.9008 4.76368 16.3437 4.76368H17.9696C18.0367 4.76368 18.1173 4.76966 18.2029 4.77607C18.3914 4.78999 18.6043 4.80585 18.7519 4.76368C18.8132 4.76368 18.8593 4.76368 18.9206 4.74846C18.8356 4.96064 18.8684 5.29792 18.8966 5.58683C18.9091 5.71455 18.9206 5.83292 18.9206 5.92683C18.9359 6.53901 18.9359 7.15107 18.9359 7.76325V11.4209L18.913 13.1731L18.8899 14.9254C18.8936 14.9584 18.8989 15.0004 18.9048 15.0493C18.9494 15.4104 19.0404 16.1465 18.9053 16.3487V16.3487Z" fill="white"/>
</svg>
