<svg width="18" height="24" viewBox="0 0 18 24" fill="none" xmlns="http://www.w3.org/2000/svg">
<path d="M17.5999 2.90002C17.3836 2.77416 17.1163 2.77416 16.8999 2.90002C16.062 3.36492 15.1183 3.606 14.16 3.6C12.7588 3.63098 11.404 3.09773 10.4 2.12002C9.24085 0.985406 7.67363 0.365438 6.05199 0.400031C4.746 0.388734 3.46913 0.785906 2.4 1.53605V1.2C2.4 0.537281 1.86277 0 1.2 0C0.537234 0 0 0.537234 0 1.2V22.8C0 23.4627 0.537234 24 1.2 24C1.86272 24 2.4 23.4628 2.4 22.8V12.4C2.53256 12.3876 2.65884 12.3376 2.76398 12.256C3.71564 11.5552 4.87022 11.1844 6.05199 11.2C7.4557 11.1677 8.81344 11.701 9.81999 12.68C10.9769 13.8129 12.541 14.4328 14.16 14.4C15.4007 14.4144 16.6177 14.0594 17.656 13.38C17.8782 13.226 18.0076 12.9702 18 12.6999V3.6C18.0025 3.31163 17.8497 3.0442 17.5999 2.90002Z" fill="#BC0202"/>
</svg>
