<svg width="22" height="24" viewBox="0 0 22 24" fill="none" xmlns="http://www.w3.org/2000/svg">
<path d="M4.98475 18.431L7.60007 22.9611C8.16443 23.9397 9.43395 24.302 10.4379 23.7216C11.4313 23.1475 11.7728 21.8782 11.1981 20.884L9.64006 18.1851L10.9893 17.4061C11.2376 17.2625 11.3228 16.945 11.1794 16.6967L10.5041 15.527C10.5846 15.5113 11.1141 15.4075 20.4513 13.5758C21.6056 13.5131 22.2971 12.2507 21.7141 11.2415L19.9881 8.25208L21.0911 6.5815C21.1994 6.41718 21.2059 6.206 21.1075 6.03559L20.0689 4.2366C19.9705 4.06619 19.7836 3.96639 19.5879 3.97795L17.5899 4.09784L15.6738 0.778995C15.3963 0.298209 14.8991 0.00710025 14.3441 0.000202863C14.3374 1.29864e-08 14.3309 0 14.3242 0C13.7878 0 13.3009 0.266968 13.0125 0.718339L6.2283 9.36073L1.81785 11.9071C0.0831657 12.9082 -0.517716 15.1336 0.48727 16.873C1.40543 18.4634 3.34115 19.089 4.98475 18.431ZM10.2988 21.4035C10.5856 21.8997 10.4158 22.5347 9.91819 22.8221C9.41894 23.1108 8.78317 22.9335 8.49956 22.442L5.90291 17.9439L7.7019 16.9052C10.7071 22.1111 10.2505 21.3201 10.2988 21.4035ZM9.12073 17.2854L8.6014 16.3859L9.5009 15.8666L10.0202 16.7661L9.12073 17.2854ZM19.3298 5.03385L20.0476 6.277L19.4075 7.24628L18.1705 5.10343L19.3298 5.03385ZM13.8811 1.28778C14.0205 1.05976 14.2416 1.03623 14.3313 1.03866C14.4199 1.03967 14.6408 1.06726 14.7741 1.29812L20.8146 11.7608C21.0114 12.1014 20.7722 12.5297 20.3776 12.5394C20.3068 12.541 20.2742 12.5538 20.0928 12.5877L13.7032 1.52046C13.8373 1.34803 13.8545 1.33139 13.8811 1.28778ZM13.0121 2.40089L19.0154 12.7991L9.95511 14.5761L7.20022 9.80459L13.0121 2.40089ZM1.38677 16.3536C1.15875 15.9591 1.03825 15.5111 1.03825 15.0579C1.03825 14.1317 1.53607 13.2691 2.33718 12.8066L6.38491 10.4696L8.98157 14.9671L4.93383 17.3042C3.69373 18.02 2.10267 17.5935 1.38677 16.3536Z" fill="#d3d3d3"/>
</svg>
