<svg width="16" height="26" viewBox="0 0 16 26" fill="none" xmlns="http://www.w3.org/2000/svg">
<path d="M2.37143 25.05H13.6857C14.0627 25.05 14.4242 24.9002 14.6908 24.6337C14.9574 24.3671 15.1071 24.0056 15.1071 23.6286V2.37143C15.1071 1.99444 14.9574 1.6329 14.6908 1.36633C14.4242 1.09976 14.0627 0.95 13.6857 0.95H2.37143C1.99444 0.95 1.6329 1.09976 1.36633 1.36633C1.09976 1.6329 0.95 1.99444 0.95 2.37143V23.6286C0.95 24.0056 1.09976 24.3671 1.36633 24.6337C1.6329 24.9002 1.99444 25.05 2.37143 25.05ZM1.92191 1.92191C2.04113 1.80269 2.20283 1.73571 2.37143 1.73571H13.6857C13.8543 1.73571 14.016 1.80269 14.1352 1.92191C14.2545 2.04113 14.3214 2.20283 14.3214 2.37143V23.6286C14.3214 23.7972 14.2545 23.9589 14.1352 24.0781C14.016 24.1973 13.8543 24.2643 13.6857 24.2643H2.37143C2.20283 24.2643 2.04113 24.1973 1.92191 24.0781C1.80269 23.9589 1.73571 23.7972 1.73571 23.6286V2.37143C1.73571 2.20283 1.80269 2.04113 1.92191 1.92191Z" fill="#D3D3D3" stroke="#D3D3D3" stroke-width="0.1"/>
<path d="M1.34286 4.82165H14.7143C14.8185 4.82165 14.9184 4.78026 14.9921 4.70659C15.0658 4.63291 15.1071 4.53299 15.1071 4.42879C15.1071 4.3246 15.0658 4.22468 14.9921 4.151C14.9184 4.07733 14.8185 4.03594 14.7143 4.03594H1.34286C1.23866 4.03594 1.13874 4.07733 1.06506 4.151C0.99139 4.22468 0.95 4.3246 0.95 4.42879C0.95 4.53299 0.99139 4.63291 1.06506 4.70659C1.13874 4.78026 1.23866 4.82165 1.34286 4.82165Z" fill="#D3D3D3" stroke="#D3D3D3" stroke-width="0.1"/>
<path d="M1.34286 20.5931H14.7143C14.8185 20.5931 14.9184 20.5517 14.9921 20.4781C15.0658 20.4044 15.1071 20.3045 15.1071 20.2003C15.1071 20.0961 15.0658 19.9962 14.9921 19.9225C14.9184 19.8488 14.8185 19.8074 14.7143 19.8074H1.34286C1.23867 19.8074 1.13874 19.8488 1.06506 19.9225C0.99139 19.9962 0.95 20.0961 0.95 20.2003C0.95 20.3045 0.99139 20.4044 1.06506 20.4781C1.13874 20.5517 1.23867 20.5931 1.34286 20.5931Z" fill="#D3D3D3" stroke="#D3D3D3" stroke-width="0.1"/>
<path d="M8.02911 23.743H8.02916C8.37765 23.7426 8.71175 23.604 8.95817 23.3576C9.20458 23.1112 9.34319 22.7771 9.34356 22.4286V22.4285C9.34356 22.1685 9.26647 21.9144 9.12204 21.6982C8.9776 21.4821 8.77231 21.3136 8.53213 21.2141C8.29194 21.1146 8.02765 21.0886 7.77267 21.1393C7.51769 21.19 7.28347 21.3152 7.09964 21.4991C6.91581 21.6829 6.79062 21.9171 6.73991 22.1721C6.68919 22.4271 6.71522 22.6914 6.81471 22.9315C6.91419 23.1717 7.08267 23.377 7.29883 23.5215C7.51499 23.6659 7.76913 23.743 8.02911 23.743ZM7.73532 21.9893C7.82227 21.9311 7.9245 21.9001 8.02908 21.9001C8.16924 21.9002 8.30364 21.9559 8.40277 22.055C8.50191 22.1541 8.55768 22.2884 8.55785 22.4286C8.55791 22.5332 8.52695 22.6354 8.46889 22.7224C8.41083 22.8094 8.32827 22.8772 8.23167 22.9173C8.13506 22.9573 8.02873 22.9679 7.92615 22.9475C7.82356 22.9271 7.72932 22.8768 7.65534 22.8029C7.58136 22.7289 7.53097 22.6347 7.51055 22.5321C7.49012 22.4296 7.50057 22.3232 7.54058 22.2266C7.58059 22.13 7.64836 22.0474 7.73532 21.9893Z" fill="#D3D3D3" stroke="#D3D3D3" stroke-width="0.1"/>
<path d="M6.65731 3.36462H9.40017C9.50436 3.36462 9.60429 3.32323 9.67796 3.24956C9.75164 3.17588 9.79302 3.07596 9.79302 2.97176C9.79302 2.86757 9.75164 2.76765 9.67796 2.69397C9.60429 2.6203 9.50436 2.57891 9.40017 2.57891H6.65731C6.55312 2.57891 6.45319 2.6203 6.37952 2.69397C6.30584 2.76765 6.26445 2.86757 6.26445 2.97176C6.26445 3.07596 6.30584 3.17588 6.37952 3.24956C6.45319 3.32323 6.55312 3.36462 6.65731 3.36462Z" fill="#D3D3D3" stroke="#D3D3D3" stroke-width="0.1"/>
</svg>
