<svg width="24" height="22" viewBox="0 0 24 22" fill="none" xmlns="http://www.w3.org/2000/svg">
<path d="M5.54509 13.2C5.38739 12.254 5.43612 11.2846 5.68786 10.3595C5.93961 9.43444 6.38833 8.57579 7.00278 7.8434C7.61722 7.11101 8.38261 6.52248 9.24565 6.1188C10.1087 5.71513 11.0486 5.50601 12 5.50601C12.9514 5.50601 13.8913 5.71513 14.7543 6.1188C15.6174 6.52248 16.3828 7.11101 16.9972 7.8434C17.6117 8.57579 18.0604 9.43444 18.3121 10.3595C18.5639 11.2846 18.6126 12.254 18.4549 13.2H5.54509ZM1.09091 15.4H12V17.6H1.09091V15.4ZM14.1818 15.4H22.9091V17.6H14.1818V15.4ZM16.3636 19.8H20.7273V22H16.3636V19.8ZM3.27273 19.8H14.1818V22H3.27273V19.8ZM10.9091 0H13.0909V3.3H10.9091V0ZM2.74364 4.3219L4.28618 2.7665L6.6 5.0996L5.05746 6.655L2.74364 4.3219ZM19.7127 2.7665L21.2553 4.3219L18.9415 6.655L17.3989 5.0996L19.7127 2.7665ZM24 11V13.2H20.7273V11H24ZM3.27273 11V13.2H0V11H3.27273Z" fill="white"/>
</svg>
