<svg width="20" height="20" viewBox="0 0 20 20" fill="none" xmlns="http://www.w3.org/2000/svg">
<path fill-rule="evenodd" clip-rule="evenodd" d="M16.5248 7.16915C17.4226 7.18276 18.4477 7.19828 19.126 7.6759C20.0125 8.29893 19.919 9.73821 19.8479 10.8349C19.8346 11.0402 19.822 11.2337 19.8168 11.4074L19.8163 11.4317C19.8 12.3445 19.7835 13.2731 19.7346 14.1856C19.7274 14.3147 19.7249 14.4533 19.7223 14.5966C19.7132 15.11 19.7029 15.6848 19.4714 16.1089C19.1096 16.7829 18.32 16.8651 17.5963 16.8486C17.6375 17.202 17.6786 17.5594 17.7197 17.9169L17.7198 17.9175C17.7609 18.2749 17.802 18.6323 17.8431 18.9857C17.8924 19.4295 17.2838 19.5939 17.0043 19.3309C16.7494 19.0925 16.4985 18.8542 16.2477 18.6158C15.9969 18.3774 15.746 18.1391 15.4911 17.9007C15.1955 17.6217 14.8834 17.3262 14.5713 17.0307L14.57 17.0295C14.539 17.0047 14.5058 16.9659 14.471 16.9255C14.4135 16.8585 14.352 16.787 14.2905 16.7664L14.2741 16.75C14.2247 16.7994 13.9122 16.8486 13.9122 16.8486C13.2744 16.9256 12.5999 16.8997 11.933 16.8741C11.6022 16.8613 11.2732 16.8486 10.9517 16.8486C10.7742 16.8486 10.5888 16.8566 10.3999 16.8646C9.81837 16.8895 9.20327 16.9157 8.68187 16.7172C7.47096 16.2394 7.49482 14.6047 7.51245 13.3971L7.51246 13.3964C7.51303 13.3576 7.51358 13.3194 7.5141 13.2814C7.21805 13.265 6.90554 13.265 6.6095 13.265C5.99271 13.8075 5.38004 14.3541 4.76738 14.9007C4.15471 15.4473 3.54204 15.9938 2.92526 16.5363C2.57987 16.8486 1.93842 16.5527 2.10289 16.0596C2.25092 15.5994 2.39894 15.1349 2.54697 14.6706C2.695 14.2061 2.84303 13.7418 2.99105 13.2814C1.90552 13.298 0.721304 13.1829 0.392355 11.9664C0.215064 11.283 0.203528 10.5117 0.192589 9.78041C0.18932 9.56189 0.186105 9.34694 0.178538 9.13894C0.129195 8.03755 0.112748 6.93616 0.112748 5.81834C0.112748 5.63627 0.111664 5.45365 0.110578 5.27079C0.105683 4.44655 0.100758 3.6173 0.194985 2.81008C0.260776 2.23472 0.458145 1.70868 0.918673 1.3306C1.75528 0.653705 3.08507 0.651917 4.22421 0.650385C4.49596 0.65002 4.75688 0.649669 4.99764 0.64017C7.07002 0.557977 9.15884 0.508661 11.2312 0.574416C12.2017 0.607293 13.2049 0.656608 14.1754 0.771679C14.7838 0.837433 15.3924 1.00182 15.7872 1.52786C16.2142 2.081 16.2306 2.78609 16.2458 3.43861L16.2459 3.44011C16.2464 3.4658 16.2471 3.49141 16.2477 3.51693C16.2971 4.47037 16.3135 5.42381 16.3299 6.37725C16.3299 6.64027 16.3299 6.90329 16.3463 7.1663C16.4051 7.16734 16.4646 7.16824 16.5247 7.16915H16.5248ZM2.5699 12.28C2.61755 12.2794 2.66483 12.2787 2.71144 12.2787C3.0404 12.2951 3.3529 12.2951 3.71474 12.2951C4.02725 12.2951 4.2904 12.6239 4.19171 12.9198C3.99434 13.5117 3.81342 14.087 3.63251 14.6623C4.45488 13.9391 5.29369 13.1993 6.11607 12.4596C6.1983 12.3609 6.31344 12.3116 6.47791 12.3116C7.5738 12.3225 8.677 12.3189 9.78263 12.3152H9.78443C10.3376 12.3134 10.8913 12.3116 11.445 12.3116C11.7537 12.3116 12.065 12.3169 12.3768 12.3221C12.8459 12.33 13.3162 12.338 13.7806 12.3281C14.3562 12.3116 14.8991 12.213 15.1293 11.5883C15.2476 11.2595 15.2713 10.8571 15.293 10.4905C15.2984 10.3988 15.3036 10.3094 15.3101 10.2239C15.415 8.92122 15.3835 7.60489 15.3521 6.29977V6.2995V6.2993C15.3491 6.17175 15.346 6.04429 15.3431 5.91698L15.3421 5.86963C15.326 5.09572 15.3095 4.30665 15.2773 3.53337C15.2751 3.48334 15.2732 3.43346 15.2713 3.38384V3.3835V3.3833V3.3831C15.2448 2.68311 15.2205 2.0375 14.422 1.80731C13.8632 1.65499 13.1966 1.63989 12.5734 1.62578C12.3896 1.62162 12.2095 1.61754 12.0371 1.61005C11.2806 1.57717 10.5404 1.56074 9.8003 1.54429C8.25423 1.52786 6.70817 1.56074 5.16212 1.62649C4.82496 1.64292 4.48369 1.65937 4.14242 1.6758C3.80115 1.69224 3.4598 1.70868 3.12263 1.72512C3.07389 1.72816 3.02346 1.73092 2.97174 1.73376C2.46495 1.76152 1.83455 1.79605 1.46144 2.16897C1.08089 2.54931 1.09818 3.25404 1.11238 3.83234C1.11597 3.97886 1.11937 4.11727 1.11604 4.24023C1.09959 4.97997 1.09959 5.71971 1.09959 6.45944C1.09959 7.98824 1.16539 9.51703 1.26407 11.0458C1.26628 11.0756 1.26833 11.1054 1.27039 11.1349C1.29889 11.5461 1.32567 11.9325 1.72459 12.1472C1.9787 12.2883 2.28127 12.2841 2.5699 12.28ZM18.8629 11.5719C18.8629 12.6568 18.8299 13.7582 18.7477 14.8432C18.6984 15.5829 18.5668 15.8131 17.8102 15.8459C17.6445 15.857 17.4787 15.8532 17.318 15.8495C17.2395 15.8476 17.1621 15.8459 17.0866 15.8459C16.8398 15.8459 16.5602 16.076 16.5931 16.3391L16.5932 16.34C16.6425 16.7836 16.6918 17.2271 16.7411 17.6542C16.1819 17.0952 15.6062 16.5199 14.9976 16.0432C14.7172 15.8329 14.4486 15.8377 14.1206 15.8438C14.0639 15.8448 14.0056 15.8459 13.945 15.8459H11.3957C11.2363 15.8459 11.0384 15.8608 10.8225 15.877C10.1029 15.9311 9.18415 16.0001 8.8299 15.5829C8.43619 15.1074 8.48425 14.0269 8.51714 13.2873L8.5174 13.2814C9.75095 13.2814 10.9681 13.2814 12.2017 13.265C12.3817 13.265 12.573 13.2708 12.7704 13.2767C14.0333 13.3144 15.5502 13.3596 16.0338 11.9664C16.4286 10.8157 16.445 9.45128 16.4122 8.15263C16.4704 8.1542 16.5291 8.15562 16.588 8.15705C17.1457 8.17057 17.7321 8.18478 18.2379 8.33346C19.0216 8.57654 18.9394 10.0512 18.8851 11.0255C18.8733 11.2371 18.8629 11.4251 18.8629 11.5719Z" fill="white"/>
</svg>
