<svg width="20" height="20" viewBox="0 0 20 20" fill="none" xmlns="http://www.w3.org/2000/svg">
<path d="M17.0776 3.79004L7.84619 3.80602C7.22445 3.80602 7.22445 4.76373 7.84619 4.76373L17.0776 4.74776C17.6835 4.74776 17.6994 3.79004 17.0776 3.79004ZM7.84619 7.47754L17.0776 7.46156C17.6994 7.46156 17.6835 8.41939 17.0776 8.41939L7.84619 8.43537C7.22445 8.43537 7.22445 7.47754 7.84619 7.47754ZM17.0776 11.1173L7.84619 11.1332C7.22445 11.1332 7.22445 12.091 7.84619 12.091L17.0776 12.075C17.6835 12.075 17.6994 11.1173 17.0776 11.1173ZM7.84619 14.7888L17.0776 14.773C17.6994 14.773 17.6835 15.7307 17.0776 15.7307L7.84619 15.7467C7.22445 15.7467 7.22445 14.7888 7.84619 14.7888Z" fill="#D3D3D3"/>
<path fill-rule="evenodd" clip-rule="evenodd" d="M19.8525 3.98182C19.8564 3.71954 19.8633 3.45639 19.8703 3.19269C19.8913 2.39682 19.9123 1.59639 19.8525 0.805085C19.8525 0.54965 19.6292 0.326172 19.3741 0.326172L15.8665 0.34215L8.73973 0.389976L5.05669 0.421933C4.7856 0.421933 4.57843 0.629541 4.57843 0.900846C4.57843 2.03715 4.56125 3.17356 4.54408 4.31335C4.53256 5.07889 4.52104 5.84606 4.51462 6.61585V8.40378L1.23017 8.43563H0.71995C0.448971 8.43563 0.241689 8.64324 0.241689 8.91454C0.209802 11.2611 0.209802 13.608 0.241689 15.9545C0.242993 16.0239 0.243863 16.0941 0.24495 16.165C0.256145 16.99 0.268645 17.8975 0.767776 18.5885C1.2143 19.2111 2.01147 19.5782 2.79278 19.6102C2.85647 19.658 2.93625 19.674 3.03191 19.674C5.47125 19.674 7.9106 19.658 10.35 19.642L10.3964 19.6415C11.593 19.6257 12.8048 19.6098 14.0011 19.5782C14.2702 19.5743 14.541 19.577 14.8127 19.5796C15.6678 19.588 16.5304 19.5965 17.3653 19.4026C18.2421 19.1951 19.0393 18.7162 19.422 17.8861C19.7886 17.1039 19.8365 16.2578 19.8365 15.4277C19.8046 13.0013 19.7886 10.5588 19.8046 8.13237C19.8259 7.20519 19.833 6.2853 19.8401 5.36291C19.8436 4.90356 19.8471 4.44356 19.8525 3.98182ZM1.30995 17.5508C1.2143 17.1837 1.18234 16.8165 1.19832 16.4493C1.16644 14.1028 1.16644 11.756 1.19832 9.40943L4.21169 9.37748L4.51462 9.3615V13.2566C4.51462 14.3581 4.49865 15.4596 4.45082 16.5611C4.45125 16.9277 4.403 17.2927 4.30734 17.6466C4.24354 17.9658 4.05223 18.2532 3.79712 18.4448C3.23908 18.796 2.3781 18.7002 1.82006 18.317C1.56506 18.1415 1.38962 17.8701 1.30995 17.5508ZM18.864 7.01498C18.864 5.83356 18.8798 4.63628 18.8958 3.43911C18.8958 3.1565 18.9009 2.8715 18.9061 2.58802C18.9138 2.1665 18.9213 1.74867 18.9118 1.3478H18.1305L11.9603 1.37976L8.74071 1.40367L5.51897 1.42758C5.51897 2.50313 5.50321 3.58269 5.48723 4.66422C5.47125 5.74965 5.45528 6.83726 5.45528 7.92487C5.45528 8.50639 5.45636 9.089 5.45723 9.67215V9.674C5.46028 11.4269 5.46321 13.1844 5.4393 14.9328L5.39147 16.6569C5.3756 17.0879 5.32778 17.5349 5.21615 17.95C5.15234 18.2373 5.02484 18.5087 4.84941 18.7481C6.92218 18.7481 8.99492 18.7321 11.0675 18.7002C11.454 18.6949 11.8422 18.6861 12.231 18.6773H12.2311C13.0132 18.6595 13.7978 18.6417 14.5751 18.6524C14.7346 18.6524 14.8968 18.6546 15.0606 18.657C15.9451 18.6698 16.877 18.6832 17.6841 18.333C17.716 18.3171 17.8595 18.2373 17.9073 18.2053C17.9408 18.1941 17.9666 18.1751 17.9955 18.1537C18.0084 18.144 18.0215 18.1346 18.0348 18.1255C18.0348 18.1095 18.0508 18.0936 18.0668 18.0936C18.1465 18.0298 18.2103 17.9658 18.274 17.902L18.3697 17.8063C18.3697 17.7903 18.3696 17.7903 18.3856 17.7743L18.5291 17.5349C18.5371 17.511 18.5491 17.491 18.561 17.4711C18.573 17.4511 18.5849 17.4312 18.5929 17.4072C18.5929 17.3912 18.6089 17.3752 18.6089 17.3752C18.6247 17.3593 18.6247 17.3593 18.6247 17.3433C18.6885 17.1996 18.7364 17.04 18.7683 16.8804C18.7967 16.781 18.8125 16.6688 18.8268 16.5665L18.8304 16.541L18.832 16.5292C18.8222 16.5687 18.8245 16.5532 18.8278 16.5319C18.8297 16.5188 18.832 16.5033 18.832 16.4973L18.848 16.3376C18.864 16.1461 18.8798 15.9545 18.8798 15.7629C18.8894 15.4468 18.8818 15.1307 18.8742 14.8147C18.8682 14.604 18.8648 14.3933 18.864 14.1826C18.848 11.788 18.848 9.40943 18.864 7.01487V7.01498Z" fill="#D3D3D3"/>
</svg>
