<svg width="24" height="24" viewBox="0 0 24 24" fill="none" xmlns="http://www.w3.org/2000/svg">
<g clip-path="url(#clip0_1418_416)">
<path d="M15.8176 6.54492H8.18122C7.87971 6.54492 7.63574 6.78889 7.63574 7.09039C7.63574 7.39189 7.87971 7.63587 8.18122 7.63587H15.8176C16.1191 7.63587 16.363 7.39189 16.363 7.09039C16.363 6.78889 16.1191 6.54492 15.8176 6.54492Z" fill="#D3D3D3"/>
<path d="M12.5448 8.72754H8.18121C7.87971 8.72754 7.63574 8.97151 7.63574 9.27301C7.63574 9.57451 7.87971 9.81848 8.18121 9.81848H12.5448C12.8463 9.81848 13.0903 9.57451 13.0903 9.27301C13.0903 8.97146 12.8463 8.72754 12.5448 8.72754Z" fill="#D3D3D3"/>
<path d="M13.6366 19.6357H10.3638C10.0623 19.6357 9.81836 19.8797 9.81836 20.1812C9.81836 20.4827 10.0623 20.7267 10.3638 20.7267H13.6366C13.9381 20.7267 14.182 20.4827 14.182 20.1812C14.182 19.8797 13.938 19.6357 13.6366 19.6357Z" fill="#D3D3D3"/>
<path d="M4.90883 19.6357H3.81793C3.51643 19.6357 3.27246 19.8797 3.27246 20.1812C3.27246 20.4827 3.51643 20.7267 3.81793 20.7267H4.90883C5.21033 20.7267 5.4543 20.4827 5.4543 20.1812C5.4543 19.8797 5.21033 19.6357 4.90883 19.6357Z" fill="#D3D3D3"/>
<path d="M8.18129 19.6357H7.09039C6.78889 19.6357 6.54492 19.8797 6.54492 20.1812C6.54492 20.4827 6.78889 20.7267 7.09039 20.7267H8.18129C8.48279 20.7267 8.72676 20.4827 8.72676 20.1812C8.72676 19.8797 8.48279 19.6357 8.18129 19.6357Z" fill="#D3D3D3"/>
<path d="M11.4547 18.546H12.5455C12.847 18.546 13.091 18.302 13.091 18.0005C13.091 17.699 12.847 17.4551 12.5455 17.4551H11.4547C11.1532 17.4551 10.9092 17.699 10.9092 18.0005C10.9092 18.302 11.1532 18.546 11.4547 18.546Z" fill="#D3D3D3"/>
<path d="M9.27211 17.4551H8.18121C7.87971 17.4551 7.63574 17.699 7.63574 18.0005C7.63574 18.302 7.87971 18.546 8.18121 18.546H9.27211C9.57361 18.546 9.81758 18.302 9.81758 18.0005C9.81758 17.699 9.57361 17.4551 9.27211 17.4551Z" fill="#D3D3D3"/>
<path d="M19.6369 18.0005C19.6369 17.699 19.3929 17.4551 19.0914 17.4551H18.0006C17.699 17.4551 17.4551 17.699 17.4551 18.0005C17.4551 18.302 17.699 18.546 18.0006 18.546H19.0914C19.3929 18.546 19.6369 18.302 19.6369 18.0005Z" fill="#D3D3D3"/>
<path d="M16.3635 18.0005C16.3635 17.699 16.1195 17.4551 15.818 17.4551H14.7271C14.4256 17.4551 14.1816 17.699 14.1816 18.0005C14.1816 18.302 14.4256 18.546 14.7271 18.546H15.818C16.1195 18.546 16.3635 18.302 16.3635 18.0005Z" fill="#D3D3D3"/>
<path d="M6.00062 17.4551H4.90973C4.60823 17.4551 4.36426 17.699 4.36426 18.0005C4.36426 18.302 4.60823 18.546 4.90973 18.546H6.00062C6.30212 18.546 6.54609 18.302 6.54609 18.0005C6.54609 17.699 6.30212 17.4551 6.00062 17.4551Z" fill="#D3D3D3"/>
<path d="M16.9088 19.6357H15.8179C15.5164 19.6357 15.2725 19.8797 15.2725 20.1812C15.2725 20.4827 15.5164 20.7267 15.8179 20.7267H16.9088C17.2103 20.7267 17.4543 20.4827 17.4543 20.1812C17.4542 19.8797 17.2103 19.6357 16.9088 19.6357Z" fill="#D3D3D3"/>
<path d="M20.1813 19.6357H19.0904C18.7889 19.6357 18.5449 19.8797 18.5449 20.1812C18.5449 20.4827 18.7889 20.7267 19.0904 20.7267H20.1813C20.4828 20.7267 20.7268 20.4827 20.7268 20.1812C20.7267 19.8797 20.4828 19.6357 20.1813 19.6357Z" fill="#D3D3D3"/>
<path d="M23.3869 19.5096L21.8182 16.7642V15.8182C21.8182 15.5798 21.6635 15.3829 21.4507 15.3086C21.6875 14.8698 21.8182 14.3089 21.8182 13.6363C21.8182 11.9286 21.0027 10.9091 19.6364 10.9091V4.90909C19.6364 4.76423 19.5788 4.6257 19.4766 4.52342L15.113 0.159801C15.0107 0.0575285 14.8722 0 14.7273 0H6.54546C5.34217 0 4.36362 0.978495 4.36362 2.18184V10.9091C3.15067 10.9091 2.37523 11.7157 2.21564 13.091H1.63636C1.42967 13.091 1.24113 13.2076 1.14842 13.3925L0.0575285 15.5742C0.0196875 15.6499 0 15.7335 0 15.8182V16.9091C0 17.2106 0.243972 17.4545 0.545472 17.4545C0.846972 17.4545 1.09094 17.2106 1.09094 16.9091V15.947L1.97356 14.1818H2.21564C2.26626 14.618 2.37999 14.9947 2.5493 15.3086C2.33652 15.3828 2.18184 15.5797 2.18184 15.8181V16.7641L0.613125 19.5096C0.212012 20.2112 0 21.0096 0 21.8182C0 23.0215 0.978495 24.0001 2.18184 24.0001H21.8182C23.0215 24.0001 24.0001 23.0216 24.0001 21.8182C24 21.0096 23.788 20.2112 23.3869 19.5096ZM15.2728 1.86223L17.7742 4.36367H16.3636C15.7623 4.36367 15.2728 3.87414 15.2728 3.27278V1.86223ZM5.45457 2.18184C5.45457 1.58047 5.9441 1.09094 6.54546 1.09094H14.1818V3.27273C14.1818 4.47602 15.1603 5.45457 16.3636 5.45457H18.5455V10.9091H5.45457V2.18184ZM4.36362 12H4.90909H19.0909H19.6364C19.9064 12 20.7273 12 20.7273 13.6364C20.7273 15.2728 19.9064 15.2728 19.6364 15.2728H14.1818V14.7273C14.1818 14.4258 13.9378 14.1818 13.6363 14.1818H10.3636C10.0621 14.1818 9.81814 14.4258 9.81814 14.7273V15.2728H4.36362C4.09357 15.2728 3.27273 15.2728 3.27273 13.6364C3.27273 12 4.09357 12 4.36362 12ZM21.8182 22.9091H2.18184C1.58047 22.9091 1.09094 22.4196 1.09094 21.8182C1.09094 21.1993 1.2534 20.5877 1.56022 20.0508L3.20083 17.1797C3.24772 17.0971 3.27273 17.0039 3.27273 16.9091V16.3636H4.36362H10.3636H13.6363H19.6364H20.7273V16.9091C20.7273 17.0039 20.7523 17.0971 20.7992 17.1797L22.4398 20.0508C22.7466 20.5878 22.9091 21.1993 22.9091 21.8183C22.9091 22.4196 22.4196 22.9091 21.8182 22.9091Z" fill="#D3D3D3"/>
</g>
<defs>
<clipPath id="clip0_1418_416">
<rect width="24" height="24" fill="white"/>
</clipPath>
</defs>
</svg>
