<svg width="26" height="24" viewBox="0 0 26 24" fill="none" xmlns="http://www.w3.org/2000/svg">
<circle cx="12.5" cy="4.5" r="3.75" stroke="#D3D3D3" stroke-width="1.5"/>
<circle cx="4.5" cy="5.5" r="2.75" stroke="#D3D3D3" stroke-width="1.5"/>
<path d="M25.6993 9.42706C25.5128 9.33018 25.2821 9.3264 25.0918 9.41739L18.4445 12.5985V10.6898C18.4426 9.20494 17.0697 8.00168 15.3755 8H3.06901C1.37482 8.00168 0.00191813 9.20494 0 10.6898V21.3102C0.00191813 22.7951 1.37482 23.9983 3.06901 24H15.3755C17.0697 23.9983 18.4426 22.7951 18.4445 21.3102V19.4362L25.092 22.6173C25.2821 22.7083 25.513 22.7047 25.6993 22.6078C25.8859 22.5107 26 22.3349 26 22.1451V9.88957C26 9.69961 25.8856 9.52393 25.6993 9.42706ZM17.2164 21.3104C17.2154 22.2014 16.3916 22.9232 15.375 22.9243H3.06901C2.0524 22.9232 1.2288 22.2014 1.2276 21.3104V10.6898C1.2288 9.799 2.0524 9.07696 3.06901 9.07591H15.3755C16.3918 9.07696 17.2157 9.799 17.2169 10.6898L17.2164 21.3104ZM24.7724 21.2386L18.4445 18.2105V13.8242L24.7724 10.7963V21.2386Z" fill="#D3D3D3"/>
</svg>
