<svg width="29" height="24" viewBox="0 0 29 24" fill="none" xmlns="http://www.w3.org/2000/svg">
<path d="M27 0H1.61538C1.1871 0.000473383 0.776499 0.170817 0.473658 0.473658C0.170817 0.776499 0.000473383 1.1871 0 1.61538V18.6923C0.000473383 19.1206 0.170817 19.5312 0.473658 19.834C0.776499 20.1369 1.1871 20.3072 1.61538 20.3077H10.9754L10.6985 21.6923H8.76923C8.64682 21.6923 8.52943 21.7409 8.44287 21.8275C8.35632 21.914 8.30769 22.0314 8.30769 22.1538V23.5385C8.30769 23.6609 8.35632 23.7783 8.44287 23.8648C8.52943 23.9514 8.64682 24 8.76923 24H19.8462C19.9686 24 20.086 23.9514 20.1725 23.8648C20.2591 23.7783 20.3077 23.6609 20.3077 23.5385V22.1538C20.3077 22.0314 20.2591 21.914 20.1725 21.8275C20.086 21.7409 19.9686 21.6923 19.8462 21.6923H17.9169L17.64 20.3077H27C27.4283 20.3072 27.8389 20.1369 28.1417 19.834C28.4446 19.5312 28.6149 19.1206 28.6154 18.6923V1.61538C28.6149 1.1871 28.4446 0.776499 28.1417 0.473658C27.8389 0.170817 27.4283 0.000473383 27 0ZM19.3846 22.6154V23.0769H9.23077V22.6154H19.3846ZM11.64 21.6923L11.9169 20.3077H16.6985L16.9754 21.6923H11.64ZM27.6923 18.6923C27.6922 18.8759 27.6192 19.0519 27.4894 19.1817C27.3596 19.3115 27.1836 19.3845 27 19.3846H1.61538C1.43182 19.3845 1.25582 19.3115 1.12602 19.1817C0.996218 19.0519 0.92323 18.8759 0.923077 18.6923V17.5385H27.6923V18.6923ZM27.6923 16.6154H0.923077V1.61538C0.92323 1.43182 0.996218 1.25582 1.12602 1.12602C1.25582 0.996218 1.43182 0.92323 1.61538 0.923077H27C27.1836 0.92323 27.3596 0.996218 27.4894 1.12602C27.6192 1.25582 27.6922 1.43182 27.6923 1.61538V16.6154Z" fill="#D3D3D3"/>
<path d="M14.7694 18H13.8463C13.7239 18 13.6065 18.0486 13.5199 18.1352C13.4334 18.2217 13.3848 18.3391 13.3848 18.4615C13.3848 18.5839 13.4334 18.7013 13.5199 18.7879C13.6065 18.8745 13.7239 18.9231 13.8463 18.9231H14.7694C14.8918 18.9231 15.0092 18.8745 15.0957 18.7879C15.1823 18.7013 15.2309 18.5839 15.2309 18.4615C15.2309 18.3391 15.1823 18.2217 15.0957 18.1352C15.0092 18.0486 14.8918 18 14.7694 18Z" fill="#D3D3D3"/>
</svg>
