<svg width="61" height="61" viewBox="0 0 61 61" fill="none" xmlns="http://www.w3.org/2000/svg">
<path d="M54.6147 45.3544C53.5588 44.5689 52.0662 44.7883 51.2807 45.844C50.8487 46.4247 50.3864 46.9943 49.9067 47.537C49.0351 48.5228 49.1277 50.0288 50.1136 50.9004C50.5671 51.3012 51.13 51.498 51.6909 51.498C52.35 51.498 53.0062 51.226 53.4771 50.6934C54.0452 50.0507 54.5927 49.3761 55.1043 48.6883C55.8898 47.6326 55.6707 46.1398 54.6147 45.3544Z" fill="white"/>
<path d="M58.5999 34.1795C57.3149 33.8997 56.0447 34.7152 55.7649 36.0009C55.6108 36.7083 55.4247 37.4169 55.2113 38.1075C54.8228 39.3649 55.5272 40.699 56.7845 41.0875C57.0188 41.1599 57.2557 41.1943 57.4887 41.1943C58.5062 41.1943 59.4483 40.5373 59.7645 39.5142C60.0178 38.6947 60.2387 37.8537 60.4215 37.0146C60.7013 35.7288 59.8858 34.4595 58.5999 34.1795Z" fill="white"/>
<path d="M43.1456 52.9858C42.513 53.3389 41.8579 53.669 41.1988 53.9667C39.9994 54.5083 39.4663 55.9196 40.0079 57.119C40.4058 58.0002 41.2731 58.5217 42.1809 58.5217C42.5088 58.5217 42.842 58.4536 43.1602 58.31C43.9422 57.9568 44.7187 57.5654 45.4688 57.1467C46.6179 56.5052 47.0293 55.0536 46.3876 53.9046C45.7463 52.7557 44.2947 52.3443 43.1456 52.9858Z" fill="white"/>
<path d="M28.1172 11.4375V29.513L19.3795 38.2506C18.449 39.1812 18.449 40.6899 19.3795 41.6203C19.8449 42.0857 20.4545 42.3183 21.0645 42.3183C21.6743 42.3183 22.2842 42.0856 22.7495 41.6203L32.185 32.1849C32.6318 31.7381 32.8828 31.1319 32.8828 30.5V11.4375C32.8828 10.1215 31.816 9.05469 30.5 9.05469C29.1839 9.05469 28.1172 10.1215 28.1172 11.4375Z" fill="white"/>
<path d="M58.6172 5.12305C57.3012 5.12305 56.2344 6.18983 56.2344 7.50586V14.1225C50.6881 5.42423 41.0024 0 30.5 0C22.3532 0 14.694 3.1726 8.93316 8.93316C3.1726 14.694 0 22.3532 0 30.5C0 38.6468 3.1726 46.306 8.93316 52.0668C14.694 57.8274 22.3532 61 30.5 61C30.5201 61 30.5396 60.9975 30.5596 60.997C30.5796 60.9975 30.599 61 30.6191 61C31.4779 61 32.3451 60.9638 33.197 60.8925C34.5084 60.7827 35.4825 59.6306 35.3727 58.3192C35.2628 57.0078 34.1122 56.0333 32.7993 56.1436C32.0792 56.2038 31.3458 56.2344 30.6191 56.2344C30.599 56.2344 30.5796 56.2369 30.5596 56.2374C30.5396 56.2369 30.5201 56.2344 30.5 56.2344C16.31 56.2344 4.76562 44.69 4.76562 30.5C4.76562 16.31 16.31 4.76562 30.5 4.76562C39.645 4.76562 48.0562 9.64003 52.6525 17.3945H46.1006C44.7846 17.3945 43.7178 18.4613 43.7178 19.7773C43.7178 21.0934 44.7846 22.1602 46.1006 22.1602H53.375C54.8261 22.1602 56.1837 21.7523 57.3396 21.0458C57.414 21.0034 57.4855 20.9578 57.5536 20.9086C59.6274 19.5443 61 17.1976 61 14.5352V7.50586C61 6.18983 59.9332 5.12305 58.6172 5.12305Z" fill="white"/>
</svg>
