<svg width="20" height="20" viewBox="0 0 20 20" fill="none" xmlns="http://www.w3.org/2000/svg">
<path d="M13.3282 5.39825L13.3504 5.44549L13.4 5.45309L17.846 6.13423C18.1909 6.18708 18.5101 6.34213 18.7693 6.58253C19.0099 6.80562 19.1898 7.09432 19.2894 7.41748C19.389 7.74065 19.4045 8.08577 19.3342 8.41543C19.2585 8.77067 19.0866 9.09405 18.8368 9.3507L15.6197 12.657L15.5841 12.6937L15.5925 12.7453L16.3519 17.4139C16.4413 17.9637 16.2978 18.5221 15.9585 18.9466C15.6162 19.3746 15.1173 19.6196 14.5897 19.6196C14.3025 19.6196 14.0147 19.5444 13.7577 19.4019L9.78104 17.1977L9.73656 17.173L9.69208 17.1977L5.71552 19.4019C5.4585 19.5444 5.17065 19.6196 4.88347 19.6196C4.3558 19.6196 3.85694 19.3746 3.51475 18.9466C3.17537 18.5221 3.03184 17.9637 3.12126 17.414L3.88073 12.7453L3.88913 12.6937L3.85347 12.657L0.636338 9.3507L0.636333 9.35069C0.386601 9.09408 0.214733 8.77068 0.139 8.41543C0.0687539 8.08576 0.0841988 7.74065 0.183772 7.41749C0.28338 7.09428 0.46325 6.80558 0.703799 6.58253L0.640757 6.50757L0.703801 6.58253C0.963036 6.34213 1.28224 6.18708 1.62723 6.13423L6.0732 5.45312L6.12281 5.44552L6.14492 5.39828L8.13321 1.15061C8.28759 0.820825 8.52615 0.548624 8.82306 0.362987L8.77438 0.27714L8.82306 0.362984C9.09857 0.190718 9.41446 0.0996094 9.73656 0.0996094C10.0587 0.0996094 10.3745 0.190746 10.6501 0.362987C10.9469 0.548625 11.1856 0.820861 11.3399 1.15061L13.3282 5.39825ZM14.3332 12.4716C14.3108 12.3344 14.3541 12.1945 14.4485 12.0975L18.0014 8.44593C18.3515 8.08616 18.1589 7.45856 17.6739 7.38423L12.7638 6.63198C12.6335 6.61203 12.5208 6.52573 12.4624 6.40096C12.4624 6.40096 12.4624 6.40096 12.4624 6.40095L10.2665 1.7099C10.1583 1.47876 9.94666 1.36271 9.73656 1.36271C9.52656 1.36271 9.31489 1.47872 9.20669 1.70989L7.0108 6.40096C6.95239 6.52574 6.8396 6.61203 6.70936 6.63198L1.79923 7.38423C1.3142 7.45856 1.12161 8.08616 1.4717 8.44593L5.02475 12.0975C5.11918 12.1945 5.16236 12.3344 5.14002 12.4716L4.30127 17.6276C4.23572 18.0307 4.53987 18.3565 4.88353 18.3565C4.97516 18.3565 5.06908 18.3335 5.15873 18.2838L9.55046 15.8495L9.50599 15.761L9.55046 15.8495C9.60875 15.8171 9.67275 15.801 9.73666 15.801C9.80056 15.801 9.86446 15.8171 9.92275 15.8495L9.96723 15.761L9.92275 15.8495L14.3146 18.2838L14.3589 18.1953L14.3146 18.2838C14.4042 18.3335 14.498 18.3565 14.5897 18.3565C14.9333 18.3565 15.2375 18.0307 15.1719 17.6276L14.3332 12.4716Z" fill="white"/>
</svg>
